<svg data-v-423bf9ae="" xmlns="http://www.w3.org/2000/svg" viewBox="0 0 544 90" class="iconLeft"><!----><!----><!----><g data-v-423bf9ae="" id="226aebd0-fef9-46d4-92e4-e49427ef315f" fill="white" transform="matrix(5.830903811703725,0,0,5.830903811703725,106.55976325376642,2.3469397142517323)"><path d="M5.24 12.46Q0.59 12.46 0.59 7.49L0.59 7.49Q0.59 5.00 1.81 3.76Q3.02 2.52 5.24 2.52L5.24 2.52Q6.45 2.52 7.43 2.93Q8.40 3.35 8.97 4.19Q9.53 5.04 9.53 6.26L9.53 6.26L7.45 6.26Q7.45 5.32 6.85 4.78Q6.24 4.24 5.28 4.24L5.28 4.24Q3.96 4.24 3.32 5.03Q2.67 5.81 2.67 7.28L2.67 7.28L2.67 7.70Q2.67 10.74 5.28 10.74L5.28 10.74Q6.30 10.74 6.91 10.21Q7.52 9.67 7.52 8.74L7.52 8.74L9.53 8.74Q9.53 9.97 8.97 10.80Q8.41 11.63 7.45 12.05Q6.48 12.46 5.24 12.46L5.24 12.46ZM14.38 12.46Q12.49 12.46 11.56 11.52Q10.64 10.58 10.64 8.61L10.64 8.61Q10.64 6.64 11.56 5.70Q12.49 4.76 14.38 4.76L14.38 4.76Q16.27 4.76 17.20 5.70Q18.13 6.64 18.13 8.61L18.13 8.61Q18.13 10.58 17.20 11.52Q16.27 12.46 14.38 12.46L14.38 12.46ZM14.38 10.89Q15.32 10.89 15.74 10.35Q16.16 9.81 16.16 8.72L16.16 8.72L16.16 8.50Q16.16 7.41 15.74 6.87Q15.32 6.33 14.38 6.33L14.38 6.33Q13.44 6.33 13.03 6.87Q12.61 7.41 12.61 8.50L12.61 8.50L12.61 8.72Q12.61 9.81 13.03 10.35Q13.44 10.89 14.38 10.89L14.38 10.89ZM22.05 12.46Q20.92 12.46 20.27 11.84Q19.61 11.23 19.61 9.87L19.61 9.87L19.61 4.93L21.53 4.93L21.53 9.46Q21.53 10.15 21.85 10.46Q22.18 10.77 22.81 10.77L22.81 10.77Q23.45 10.77 23.88 10.31Q24.30 9.86 24.30 9.18L24.30 9.18L24.30 4.93L26.22 4.93L26.22 12.29L24.58 12.29L24.44 11.33L24.35 11.33Q23.45 12.46 22.05 12.46L22.05 12.46ZM28.21 12.29L28.21 4.93L29.85 4.93L30.00 6.12L30.10 6.12Q30.34 5.49 30.72 5.12Q31.09 4.76 31.71 4.76L31.71 4.76Q31.98 4.76 32.18 4.81Q32.38 4.86 32.44 4.89L32.44 4.89L32.44 6.68L31.91 6.68Q30.97 6.68 30.55 7.19Q30.13 7.70 30.13 8.74L30.13 8.74L30.13 12.29L28.21 12.29ZM36.60 12.46Q35.06 12.46 34.18 11.82Q33.31 11.19 33.31 10.12L33.31 10.12L33.32 9.95L35.18 9.95L35.18 10.05Q35.20 10.54 35.62 10.76Q36.05 10.98 36.67 10.98L36.67 10.98Q37.24 10.98 37.65 10.82Q38.05 10.67 38.05 10.32L38.05 10.32Q38.05 9.93 37.64 9.73Q37.23 9.53 36.34 9.34L36.34 9.34Q35.43 9.13 34.86 8.91Q34.29 8.69 33.87 8.23Q33.45 7.77 33.45 7L33.45 7Q33.45 5.92 34.35 5.34Q35.25 4.76 36.68 4.76L36.68 4.76Q38.01 4.76 38.88 5.30Q39.75 5.84 39.75 6.76L39.75 6.76L39.73 7.08L37.87 7.08L37.87 7.06Q37.86 6.65 37.52 6.45Q37.18 6.24 36.61 6.24L36.61 6.24Q36.04 6.24 35.70 6.40Q35.36 6.55 35.36 6.83L35.36 6.83Q35.36 7.18 35.75 7.35Q36.13 7.52 36.99 7.69L36.99 7.69Q37.93 7.90 38.51 8.11Q39.10 8.32 39.54 8.79Q39.97 9.27 39.97 10.08L39.97 10.08Q39.97 12.46 36.60 12.46L36.60 12.46ZM44.48 12.46Q42.70 12.46 41.82 11.52Q40.95 10.58 40.95 8.61L40.95 8.61Q40.95 6.64 41.82 5.70Q42.70 4.76 44.48 4.76L44.48 4.76Q46.12 4.76 46.93 5.71Q47.74 6.65 47.74 8.61L47.74 8.61L47.74 9.06L42.90 9.06Q42.92 10.04 43.29 10.51Q43.65 10.98 44.51 10.98L44.51 10.98Q45.11 10.98 45.48 10.64Q45.85 10.30 45.85 9.69L45.85 9.69L47.74 9.69Q47.74 11.07 46.84 11.77Q45.95 12.46 44.48 12.46L44.48 12.46ZM42.92 7.78L45.75 7.78Q45.75 6.26 44.48 6.26L44.48 6.26Q43.75 6.26 43.38 6.64Q43.01 7.01 42.92 7.78L42.92 7.78ZM49.17 12.29L49.17 2.69L51.20 2.69L51.20 6.50L55.37 6.50L55.37 2.69L57.40 2.69L57.40 12.29L55.37 12.29L55.37 8.25L51.20 8.25L51.20 12.29L49.17 12.29ZM61.73 12.46Q60.59 12.46 59.94 11.84Q59.29 11.23 59.29 9.87L59.29 9.87L59.29 4.93L61.21 4.93L61.21 9.46Q61.21 10.15 61.53 10.46Q61.85 10.77 62.48 10.77L62.48 10.77Q63.13 10.77 63.55 10.31Q63.98 9.86 63.98 9.18L63.98 9.18L63.98 4.93L65.90 4.93L65.90 12.29L64.26 12.29L64.12 11.33L64.02 11.33Q63.13 12.46 61.73 12.46L61.73 12.46ZM71.99 12.46Q71.27 12.46 70.69 12.17Q70.10 11.89 69.75 11.33L69.75 11.33L69.65 11.33L69.52 12.29L67.89 12.29L67.89 2.17L69.80 2.17L69.80 5.78L69.89 5.78Q70.21 5.29 70.78 5.03Q71.34 4.76 72.09 4.76L72.09 4.76Q73.37 4.76 74.15 5.73Q74.93 6.69 74.93 8.60L74.93 8.60Q74.93 10.54 74.16 11.50Q73.39 12.46 71.99 12.46L71.99 12.46ZM71.37 10.79Q72.23 10.79 72.59 10.28Q72.95 9.77 72.95 8.74L72.95 8.74L72.95 8.48Q72.95 7.45 72.59 6.94Q72.23 6.43 71.37 6.43L71.37 6.43Q69.80 6.43 69.80 8.51L69.80 8.51L69.80 8.74Q69.80 10.79 71.37 10.79L71.37 10.79Z"></path></g><!----><g data-v-423bf9ae="" id="98d433b1-f05d-49a8-93d0-b9c2135e3b6f" transform="matrix(2.8125,0,0,2.8125,0,0)" stroke="none" fill="white"><path d="M0 32h32V0H0v32zm19.377-19.492l6.936-6.936v20.855h-6.936V12.508zM5.688 5.572l6.936 6.936v13.919H5.688V5.572z"></path></g><!----></svg>